<svg xmlns="http://www.w3.org/2000/svg" width="256" height="320" viewBox="0 0 256 320" role="img" aria-label="Charter of the Free Bridge">
  <defs>
    <linearGradient id="g-charter-of-the-free-bridge" x1="0" y1="0" x2="1" y2="1">
      <stop offset="0%" stop-color="#3d3b49"/>
      <stop offset="55%" stop-color="#31354d"/>
      <stop offset="100%" stop-color="#141418"/>
    </linearGradient>
    <radialGradient id="shine-charter-of-the-free-bridge" cx="30%" cy="20%" r="70%">
      <stop offset="0%" stop-color="#d1d4f0" stop-opacity="0.18"/>
      <stop offset="100%" stop-color="#d1d4f0" stop-opacity="0"/>
    </radialGradient>
  </defs>
  <rect width="256" height="320" rx="10" fill="#0f1014"/>
  <rect x="18" y="12" width="220" height="296" rx="8" fill="#090a0d" opacity="0.55"/>

  <rect x="36" y="24" width="184" height="272" rx="5" fill="url(#g-charter-of-the-free-bridge)" stroke="#d1d4f0" stroke-width="3"/>
  <rect x="44" y="32" width="14" height="256" fill="#d1d4f0" opacity="0.32"/>
  <circle cx="198" cy="58" r="16" fill="none" stroke="#d6d6fb" stroke-width="2" opacity="0.75"/>
  <circle cx="198" cy="58" r="6" fill="#d6d6fb" opacity="0.35"/>
  <rect x="36" y="24" width="184" height="272" rx="6" fill="url(#shine-charter-of-the-free-bridge)" pointer-events="none"/>
  <g transform="translate(0,-2)">
  <g opacity="0.34" fill="none" stroke="#d6d6fb" stroke-width="2">
    <path d="M96 112 L160 112"/>
    <path d="M128 112 L128 92"/>
    <path d="M104 112 C104 98, 116 92, 120 104"/>
    <path d="M152 112 C152 98, 140 92, 136 104"/>
  </g></g>
  
  <rect x="44" y="32" width="18" height="18" fill="none" stroke="#d6d6fb" opacity="0.35"/>
  <rect x="194" y="32" width="18" height="18" fill="none" stroke="#d6d6fb" opacity="0.35"/>
  <rect x="44" y="270" width="18" height="18" fill="none" stroke="#d6d6fb" opacity="0.35"/>
  <rect x="194" y="270" width="18" height="18" fill="none" stroke="#d6d6fb" opacity="0.35"/>
  <text x="128" y="147" text-anchor="middle" fill="#d1d4f0" font-family="Georgia, serif" font-size="13" font-weight="700">Charter of the</text>
  <text x="128" y="165" text-anchor="middle" fill="#d1d4f0" font-family="Georgia, serif" font-size="12">Free Bridge</text>
  <text x="128" y="183" text-anchor="middle" fill="#d1d4f0" font-family="Georgia, serif" font-size="11"></text>
  <text x="128" y="262" text-anchor="middle" fill="#d6d6fb" font-size="10" letter-spacing="1.2">LAW</text>
  <text x="128" y="42" text-anchor="middle" fill="#d1d4f0" font-family="Georgia, serif" font-size="20" opacity="0.85">§</text>
</svg>
