<svg xmlns="http://www.w3.org/2000/svg" width="256" height="320" viewBox="0 0 256 320" role="img" aria-label="Clockwork &amp; Counterweights">
  <defs>
    <linearGradient id="g-clockwork-counterweights" x1="0" y1="0" x2="1" y2="1">
      <stop offset="0%" stop-color="#305f6b"/>
      <stop offset="55%" stop-color="#24596f"/>
      <stop offset="100%" stop-color="#141418"/>
    </linearGradient>
    <radialGradient id="shine-clockwork-counterweights" cx="30%" cy="20%" r="70%">
      <stop offset="0%" stop-color="#b8e8f8" stop-opacity="0.18"/>
      <stop offset="100%" stop-color="#b8e8f8" stop-opacity="0"/>
    </radialGradient>
  </defs>
  <rect width="256" height="320" rx="10" fill="#0f1014"/>
  <rect x="18" y="12" width="220" height="296" rx="8" fill="#090a0d" opacity="0.55"/>

  <rect x="34" y="48" width="188" height="224" rx="4" fill="url(#g-clockwork-counterweights)" stroke="#b8e8f8" stroke-width="2"/>
  <path d="M128 48 L128 272" stroke="#b8e8f8" opacity="0.35"/>
  <rect x="40" y="54" width="10" height="212" fill="#b8e8f8" opacity="0.22"/>
  <rect x="206" y="54" width="10" height="212" fill="#b8e8f8" opacity="0.22"/>
  <rect x="34" y="48" width="188" height="224" rx="6" fill="url(#shine-clockwork-counterweights)" pointer-events="none"/>
  <g transform="translate(0,8)">
  <g opacity="0.28" fill="none" stroke="#bceaff" stroke-width="2">
    <circle cx="108" cy="98" r="16"/><circle cx="108" cy="98" r="6"/>
    <circle cx="148" cy="108" r="12"/><circle cx="148" cy="108" r="4"/>
    <path d="M108 82 L108 86 M108 110 L108 114 M92 98 L96 98 M120 98 L124 98"/>
  </g></g>
  
  <circle cx="50" cy="64" r="5" fill="none" stroke="#bceaff" opacity="0.4"/>
  <circle cx="206" cy="64" r="5" fill="none" stroke="#bceaff" opacity="0.4"/>
  <circle cx="50" cy="256" r="5" fill="none" stroke="#bceaff" opacity="0.4"/>
  <circle cx="206" cy="256" r="5" fill="none" stroke="#bceaff" opacity="0.4"/>
  <text x="128" y="146" text-anchor="middle" fill="#b8e8f8" font-family="Georgia, serif" font-size="13" font-weight="700">Clockwork &amp; Counterweights</text>
  <text x="128" y="164" text-anchor="middle" fill="#b8e8f8" font-family="Georgia, serif" font-size="12"></text>
  <text x="128" y="182" text-anchor="middle" fill="#b8e8f8" font-family="Georgia, serif" font-size="11"></text>
  <text x="128" y="238" text-anchor="middle" fill="#bceaff" font-size="10" letter-spacing="1.2">SCIENCE</text>
  <text x="128" y="66" text-anchor="middle" fill="#b8e8f8" font-family="Georgia, serif" font-size="20" opacity="0.85">⚗</text>
</svg>
