<svg xmlns="http://www.w3.org/2000/svg" width="256" height="320" viewBox="0 0 256 320" role="img" aria-label="Mountain Stone &amp; Root">
  <defs>
    <linearGradient id="g-mountain-stone-root" x1="0" y1="0" x2="1" y2="1">
      <stop offset="0%" stop-color="#305a3a"/>
      <stop offset="55%" stop-color="#24543e"/>
      <stop offset="100%" stop-color="#141418"/>
    </linearGradient>
    <radialGradient id="shine-mountain-stone-root" cx="30%" cy="20%" r="70%">
      <stop offset="0%" stop-color="#c8e6d0" stop-opacity="0.18"/>
      <stop offset="100%" stop-color="#c8e6d0" stop-opacity="0"/>
    </radialGradient>
  </defs>
  <rect width="256" height="320" rx="10" fill="#0f1014"/>
  <rect x="18" y="12" width="220" height="296" rx="8" fill="#090a0d" opacity="0.55"/>

  <rect x="34" y="48" width="188" height="224" rx="4" fill="url(#g-mountain-stone-root)" stroke="#c8e6d0" stroke-width="2"/>
  <path d="M128 48 L128 272" stroke="#c8e6d0" opacity="0.35"/>
  <rect x="40" y="54" width="10" height="212" fill="#c8e6d0" opacity="0.22"/>
  <rect x="206" y="54" width="10" height="212" fill="#c8e6d0" opacity="0.22"/>
  <rect x="34" y="48" width="188" height="224" rx="6" fill="url(#shine-mountain-stone-root)" pointer-events="none"/>
  <g transform="translate(0,8)">
  <g opacity="0.34" fill="#cae7dc">
    <path d="M128 78 C110 96, 110 118, 128 128 C146 118, 146 96, 128 78 Z"/>
    <path d="M128 82 L128 124" stroke="#cae7dc" stroke-width="2" fill="none"/>
  </g></g>
  
  <rect x="42" y="56" width="18" height="18" fill="none" stroke="#cae7dc" opacity="0.35"/>
  <rect x="196" y="56" width="18" height="18" fill="none" stroke="#cae7dc" opacity="0.35"/>
  <rect x="42" y="246" width="18" height="18" fill="none" stroke="#cae7dc" opacity="0.35"/>
  <rect x="196" y="246" width="18" height="18" fill="none" stroke="#cae7dc" opacity="0.35"/>
  <text x="128" y="146" text-anchor="middle" fill="#c8e6d0" font-family="Georgia, serif" font-size="13" font-weight="700">Mountain Stone &amp;</text>
  <text x="128" y="164" text-anchor="middle" fill="#c8e6d0" font-family="Georgia, serif" font-size="12">Root</text>
  <text x="128" y="182" text-anchor="middle" fill="#c8e6d0" font-family="Georgia, serif" font-size="11"></text>
  <text x="128" y="238" text-anchor="middle" fill="#cae7dc" font-size="10" letter-spacing="1.2">NATURE</text>
  <text x="128" y="66" text-anchor="middle" fill="#c8e6d0" font-family="Georgia, serif" font-size="20" opacity="0.85">❧</text>
</svg>
