<svg xmlns="http://www.w3.org/2000/svg" width="256" height="320" viewBox="0 0 256 320" role="img" aria-label="The Green Knight's Lay">
  <defs>
    <linearGradient id="g-the-green-knight-s-lay" x1="0" y1="0" x2="1" y2="1">
      <stop offset="0%" stop-color="#56385c"/>
      <stop offset="55%" stop-color="#4a3260"/>
      <stop offset="100%" stop-color="#141418"/>
    </linearGradient>
    <radialGradient id="shine-the-green-knight-s-lay" cx="30%" cy="20%" r="70%">
      <stop offset="0%" stop-color="#eec7f1" stop-opacity="0.18"/>
      <stop offset="100%" stop-color="#eec7f1" stop-opacity="0"/>
    </radialGradient>
  </defs>
  <rect width="256" height="320" rx="10" fill="#0f1014"/>
  <rect x="18" y="12" width="220" height="296" rx="8" fill="#090a0d" opacity="0.55"/>

  <rect x="46" y="34" width="164" height="252" rx="4" fill="url(#g-the-green-knight-s-lay)" stroke="#eec7f1" stroke-width="2"/>
  <rect x="52" y="40" width="8" height="240" fill="#eec7f1" opacity="0.28"/>
  <rect x="196" y="120" width="6" height="80" rx="2" fill="#f2c9fc" opacity="0.55"/>
  <rect x="46" y="34" width="164" height="252" rx="6" fill="url(#shine-the-green-knight-s-lay)" pointer-events="none"/>
  <g transform="translate(0,2)">
  <g opacity="0.22" fill="#f2c9fc">
    <path d="M128 126 C108 108, 104 92, 118 88 C124 86, 128 92, 132 88 C146 92, 148 108, 128 126 Z"/>
  </g></g>
  
  <path d="M56 44 L74 44 M56 44 L56 62" stroke="#f2c9fc" opacity="0.45" fill="none"/>
  <path d="M200 44 L182 44 M200 44 L200 62" stroke="#f2c9fc" opacity="0.45" fill="none"/>
  <path d="M56 276 L74 276 M56 276 L56 258" stroke="#f2c9fc" opacity="0.45" fill="none"/>
  <path d="M200 276 L182 276 M200 276 L200 258" stroke="#f2c9fc" opacity="0.45" fill="none"/>
  <text x="128" y="147" text-anchor="middle" fill="#eec7f1" font-family="Georgia, serif" font-size="13" font-weight="700">The Green Knight's</text>
  <text x="128" y="165" text-anchor="middle" fill="#eec7f1" font-family="Georgia, serif" font-size="12">Lay</text>
  <text x="128" y="183" text-anchor="middle" fill="#eec7f1" font-family="Georgia, serif" font-size="11"></text>
  <text x="128" y="252" text-anchor="middle" fill="#f2c9fc" font-size="10" letter-spacing="1.2">POETRY</text>
  <text x="128" y="52" text-anchor="middle" fill="#eec7f1" font-family="Georgia, serif" font-size="20" opacity="0.85">♪</text>
</svg>
