<svg xmlns="http://www.w3.org/2000/svg" width="256" height="256" viewBox="0 0 256 256" role="img" aria-label="Trolls Under the Bridge">
  <defs>
    <linearGradient id="cover-trolls-under-the-bridge" x1="0.15" y1="0" x2="0.85" y2="1">
      <stop offset="0%" stop-color="#609090"/>
      <stop offset="45%" stop-color="#406060"/>
      <stop offset="100%" stop-color="#2a4040"/>
    </linearGradient>
    <radialGradient id="glow-trolls-under-the-bridge" cx="40%" cy="30%" r="65%">
      <stop offset="0%" stop-color="#ffffff" stop-opacity="0.12"/>
      <stop offset="100%" stop-color="#ffffff" stop-opacity="0"/>
    </radialGradient>
  </defs>
  <rect width="256" height="256" fill="#101012"/>
  <rect x="10" y="10" width="236" height="236" rx="6" fill="#08080a" stroke="#3a3a42" stroke-width="2"/>
  
  <g>
    <polygon points="92,170 172,170 180,198 84,198" fill="#113349"/>
    <polygon points="172,118 200,136 200,198 172,170" fill="#9ec7d6"/>
    <polygon points="84,138 172,118 172,170 84,198" fill="#b0d0d0"/>
    <polygon points="76,112 164,92 172,118 84,138" fill="url(#cover-trolls-under-the-bridge)"/>
    <polygon points="164,92 188,108 172,118 76,112" fill="#2a4040" opacity="0.5"/>
    <path d="M76 112 L84 138 L84 198 L76 176 Z" fill="#113349"/>
    <rect x="78" y="108" width="88" height="8" rx="2" fill="#1b3845" opacity="0.85"/>
    <rect x="78" y="148" width="88" height="8" rx="2" fill="#1b3845" opacity="0.85"/>
    <rect x="102" y="118" width="52" height="36" rx="3" fill="#b0d0d0" stroke="#7e9fae" stroke-width="1.5" opacity="0.95"/>
    <circle cx="108" cy="124" r="2" fill="#7e9fae" opacity="0.45"/>
    <circle cx="148" cy="124" r="2" fill="#7e9fae" opacity="0.45"/>
    <circle cx="108" cy="148" r="2" fill="#7e9fae" opacity="0.45"/>
    <circle cx="148" cy="148" r="2" fill="#7e9fae" opacity="0.45"/>
    <rect x="125" y="126" width="6" height="20" rx="2" fill="#7e9fae" opacity="0.12"/>
    <rect x="126" y="186" width="8" height="22" rx="2" fill="#c8b888" opacity="0.9"/>
    <path d="M90 98 L154 84 L162 86 L98 100 Z" fill="#609090" opacity="0.18"/>
  </g>
  <rect x="10" y="10" width="236" height="236" rx="6" fill="url(#glow-trolls-under-the-bridge)" pointer-events="none"/>
</svg>
